<svg width="45" height="45" viewBox="0 0 45 45" fill="none" xmlns="http://www.w3.org/2000/svg">
<g clip-path="url(#clip0_27_2)">
<path d="M22.5 42.1875C17.2786 42.1875 12.271 40.1133 8.57883 36.4212C4.88671 32.729 2.8125 27.7214 2.8125 22.5C2.8125 17.2786 4.88671 12.271 8.57883 8.57883C12.271 4.88671 17.2786 2.8125 22.5 2.8125C27.7214 2.8125 32.729 4.88671 36.4212 8.57883C40.1133 12.271 42.1875 17.2786 42.1875 22.5C42.1875 27.7214 40.1133 32.729 36.4212 36.4212C32.729 40.1133 27.7214 42.1875 22.5 42.1875ZM22.5 45C28.4674 45 34.1903 42.6295 38.4099 38.4099C42.6295 34.1903 45 28.4674 45 22.5C45 16.5326 42.6295 10.8097 38.4099 6.5901C34.1903 2.37053 28.4674 0 22.5 0C16.5326 0 10.8097 2.37053 6.5901 6.5901C2.37053 10.8097 0 16.5326 0 22.5C0 28.4674 2.37053 34.1903 6.5901 38.4099C10.8097 42.6295 16.5326 45 22.5 45V45Z" fill="white"/>
<path d="M14.0625 17.5781C14.0625 16.6457 14.4329 15.7515 15.0922 15.0922C15.7515 14.4329 16.6457 14.0625 17.5781 14.0625C18.5105 14.0625 19.4047 14.4329 20.064 15.0922C20.7234 15.7515 21.0938 16.6457 21.0938 17.5781V27.4219C21.0938 28.3543 20.7234 29.2485 20.064 29.9078C19.4047 30.5671 18.5105 30.9375 17.5781 30.9375C16.6457 30.9375 15.7515 30.5671 15.0922 29.9078C14.4329 29.2485 14.0625 28.3543 14.0625 27.4219V17.5781ZM23.9062 17.5781C23.9062 16.6457 24.2766 15.7515 24.936 15.0922C25.5953 14.4329 26.4895 14.0625 27.4219 14.0625C28.3543 14.0625 29.2485 14.4329 29.9078 15.0922C30.5671 15.7515 30.9375 16.6457 30.9375 17.5781V27.4219C30.9375 28.3543 30.5671 29.2485 29.9078 29.9078C29.2485 30.5671 28.3543 30.9375 27.4219 30.9375C26.4895 30.9375 25.5953 30.5671 24.936 29.9078C24.2766 29.2485 23.9062 28.3543 23.9062 27.4219V17.5781Z" fill="white"/>
</g>
<defs>
<clipPath id="clip0_27_2">
<rect width="45" height="45" fill="white"/>
</clipPath>
</defs>
</svg>
