<svg width="28" height="28" viewBox="0 0 28 28" fill="none" xmlns="http://www.w3.org/2000/svg">
<g clip-path="url(#clip0_4_73)">
<path d="M14 26.25C10.7511 26.25 7.63526 24.9594 5.33794 22.6621C3.04062 20.3647 1.75 17.2489 1.75 14C1.75 10.7511 3.04062 7.63526 5.33794 5.33794C7.63526 3.04062 10.7511 1.75 14 1.75C17.2489 1.75 20.3647 3.04062 22.6621 5.33794C24.9594 7.63526 26.25 10.7511 26.25 14C26.25 17.2489 24.9594 20.3647 22.6621 22.6621C20.3647 24.9594 17.2489 26.25 14 26.25ZM14 28C17.713 28 21.274 26.525 23.8995 23.8995C26.525 21.274 28 17.713 28 14C28 10.287 26.525 6.72601 23.8995 4.10051C21.274 1.475 17.713 0 14 0C10.287 0 6.72601 1.475 4.10051 4.10051C1.475 6.72601 0 10.287 0 14C0 17.713 1.475 21.274 4.10051 23.8995C6.72601 26.525 10.287 28 14 28Z" fill="#F6F6F6"/>
<path d="M10.9743 8.84625C11.1174 8.77255 11.2781 8.73976 11.4386 8.7515C11.5992 8.76323 11.7534 8.81903 11.8843 8.91275L18.0093 13.2877C18.1227 13.3687 18.2151 13.4755 18.2789 13.5994C18.3427 13.7233 18.376 13.8607 18.376 14C18.376 14.1393 18.3427 14.2767 18.2789 14.4006C18.2151 14.5244 18.1227 14.6313 18.0093 14.7122L11.8843 19.0872C11.7534 19.1809 11.5993 19.2366 11.4388 19.2484C11.2783 19.2601 11.1177 19.2274 10.9747 19.1538C10.8316 19.0801 10.7116 18.9685 10.6278 18.8311C10.5441 18.6937 10.4999 18.5359 10.5 18.375V9.625C10.4998 9.46414 10.544 9.30635 10.6277 9.16897C10.7113 9.03158 10.8313 8.91992 10.9743 8.84625Z" fill="#F6F6F6"/>
</g>
<defs>
<clipPath id="clip0_4_73">
<rect width="28" height="28" fill="white"/>
</clipPath>
</defs>
</svg>
