<svg width="45" height="45" viewBox="0 0 45 45" fill="none" xmlns="http://www.w3.org/2000/svg">
<g clip-path="url(#clip0_4_35)">
<path d="M22.5 42.1875C17.2786 42.1875 12.271 40.1133 8.57883 36.4212C4.88671 32.729 2.8125 27.7214 2.8125 22.5C2.8125 17.2786 4.88671 12.271 8.57883 8.57883C12.271 4.88671 17.2786 2.8125 22.5 2.8125C27.7214 2.8125 32.729 4.88671 36.4212 8.57883C40.1133 12.271 42.1875 17.2786 42.1875 22.5C42.1875 27.7214 40.1133 32.729 36.4212 36.4212C32.729 40.1133 27.7214 42.1875 22.5 42.1875ZM22.5 45C28.4674 45 34.1903 42.6295 38.4099 38.4099C42.6295 34.1903 45 28.4674 45 22.5C45 16.5326 42.6295 10.8097 38.4099 6.5901C34.1903 2.37053 28.4674 0 22.5 0C16.5326 0 10.8097 2.37053 6.5901 6.5901C2.37053 10.8097 0 16.5326 0 22.5C0 28.4674 2.37053 34.1903 6.5901 38.4099C10.8097 42.6295 16.5326 45 22.5 45Z" fill="#F6F6F6"/>
<path d="M17.6372 14.2172C17.8672 14.0987 18.1254 14.0461 18.3835 14.0649C18.6415 14.0838 18.8893 14.1734 19.0997 14.3241L28.9434 21.3553C29.1257 21.4854 29.2743 21.6571 29.3768 21.8562C29.4794 22.0553 29.5328 22.2761 29.5328 22.5C29.5328 22.724 29.4794 22.9447 29.3768 23.1438C29.2743 23.3429 29.1257 23.5146 28.9434 23.6447L19.0997 30.6759C18.8894 30.8264 18.6417 30.916 18.3838 30.9349C18.1259 30.9538 17.8678 30.9011 17.6379 30.7828C17.4079 30.6645 17.2151 30.4851 17.0805 30.2643C16.9459 30.0435 16.8748 29.7898 16.875 29.5313V15.4688C16.8747 15.2102 16.9457 14.9566 17.0802 14.7359C17.2147 14.5151 17.4074 14.3356 17.6372 14.2172Z" fill="#F6F6F6"/>
</g>
<defs>
<clipPath id="clip0_4_35">
<rect width="45" height="45" fill="white"/>
</clipPath>
</defs>
</svg>
