<svg width="32" height="32" viewBox="0 0 32 32" fill="none" xmlns="http://www.w3.org/2000/svg">
<g clip-path="url(#clip0_4_62)">
<path d="M16 30C12.287 30 8.72601 28.525 6.1005 25.8995C3.475 23.274 2 19.713 2 16C2 12.287 3.475 8.72601 6.1005 6.1005C8.72601 3.475 12.287 2 16 2C19.713 2 23.274 3.475 25.8995 6.1005C28.525 8.72601 30 12.287 30 16C30 19.713 28.525 23.274 25.8995 25.8995C23.274 28.525 19.713 30 16 30ZM16 32C20.2435 32 24.3131 30.3143 27.3137 27.3137C30.3143 24.3131 32 20.2435 32 16C32 11.7565 30.3143 7.68687 27.3137 4.68629C24.3131 1.68571 20.2435 0 16 0C11.7565 0 7.68687 1.68571 4.68629 4.68629C1.68571 7.68687 0 11.7565 0 16C0 20.2435 1.68571 24.3131 4.68629 27.3137C7.68687 30.3143 11.7565 32 16 32Z" fill="#F6F6F6"/>
<path d="M23.458 10.11C23.2944 10.0258 23.1108 9.9883 22.9273 10.0017C22.7438 10.0151 22.5676 10.0789 22.418 10.186L17 14.056V11C16.9999 10.8164 16.9493 10.6365 16.8536 10.4798C16.758 10.3231 16.6212 10.1957 16.458 10.1117C16.2948 10.0276 16.1116 9.99006 15.9286 10.0032C15.7455 10.0163 15.5695 10.0795 15.42 10.186L10 14.056V11C10 10.7348 9.89464 10.4804 9.70711 10.2929C9.51957 10.1054 9.26522 10 9 10C8.73478 10 8.48043 10.1054 8.29289 10.2929C8.10536 10.4804 8 10.7348 8 11V21C8 21.2652 8.10536 21.5196 8.29289 21.7071C8.48043 21.8946 8.73478 22 9 22C9.26522 22 9.51957 21.8946 9.70711 21.7071C9.89464 21.5196 10 21.2652 10 21V17.944L15.42 21.814C15.5695 21.9205 15.7455 21.9837 15.9286 21.9968C16.1116 22.0099 16.2948 21.9724 16.458 21.8883C16.6212 21.8043 16.758 21.6769 16.8536 21.5202C16.9493 21.3635 16.9999 21.1836 17 21V17.944L22.42 21.814C22.5695 21.9205 22.7455 21.9837 22.9286 21.9968C23.1116 22.0099 23.2948 21.9724 23.458 21.8883C23.6212 21.8043 23.758 21.6769 23.8536 21.5202C23.9493 21.3635 23.9999 21.1836 24 21V11C24.0002 10.8162 23.9497 10.6358 23.8541 10.4788C23.7585 10.3218 23.6214 10.1942 23.458 10.11Z" fill="#F6F6F6"/>
</g>
<defs>
<clipPath id="clip0_4_62">
<rect width="32" height="32" fill="white"/>
</clipPath>
</defs>
</svg>
