<svg width="32" height="32" viewBox="0 0 32 32" fill="none" xmlns="http://www.w3.org/2000/svg">
<g clip-path="url(#clip0_4_56)">
<path d="M16 30C12.287 30 8.72601 28.525 6.1005 25.8995C3.475 23.274 2 19.713 2 16C2 12.287 3.475 8.72601 6.1005 6.1005C8.72601 3.475 12.287 2 16 2C19.713 2 23.274 3.475 25.8995 6.1005C28.525 8.72601 30 12.287 30 16C30 19.713 28.525 23.274 25.8995 25.8995C23.274 28.525 19.713 30 16 30ZM16 32C20.2435 32 24.3131 30.3143 27.3137 27.3137C30.3143 24.3131 32 20.2435 32 16C32 11.7565 30.3143 7.68687 27.3137 4.68629C24.3131 1.68571 20.2435 0 16 0C11.7565 0 7.68687 1.68571 4.68629 4.68629C1.68571 7.68687 0 11.7565 0 16C0 20.2435 1.68571 24.3131 4.68629 27.3137C7.68687 30.3143 11.7565 32 16 32Z" fill="#F6F6F6"/>
<path d="M8.542 10.11C8.70557 10.0258 8.8892 9.9883 9.07269 10.0017C9.25618 10.0151 9.43242 10.0789 9.582 10.186L15 14.056V11C15.0001 10.8164 15.0507 10.6365 15.1464 10.4798C15.242 10.3231 15.3788 10.1957 15.542 10.1117C15.7052 10.0276 15.8884 9.99006 16.0714 10.0032C16.2545 10.0163 16.4305 10.0795 16.58 10.186L22 14.056V11C22 10.7348 22.1054 10.4804 22.2929 10.2929C22.4804 10.1054 22.7348 10 23 10C23.2652 10 23.5196 10.1054 23.7071 10.2929C23.8946 10.4804 24 10.7348 24 11V21C24 21.2652 23.8946 21.5196 23.7071 21.7071C23.5196 21.8946 23.2652 22 23 22C22.7348 22 22.4804 21.8946 22.2929 21.7071C22.1054 21.5196 22 21.2652 22 21V17.944L16.58 21.814C16.4305 21.9205 16.2545 21.9837 16.0714 21.9968C15.8884 22.0099 15.7052 21.9724 15.542 21.8883C15.3788 21.8043 15.242 21.6769 15.1464 21.5202C15.0507 21.3635 15.0001 21.1836 15 21V17.944L9.58 21.814C9.43047 21.9205 9.25453 21.9837 9.07144 21.9968C8.88835 22.0099 8.70519 21.9724 8.54202 21.8883C8.37884 21.8043 8.24195 21.6769 8.14635 21.5202C8.05075 21.3635 8.00011 21.1836 8 21V11C7.99981 10.8162 8.05029 10.6358 8.14591 10.4788C8.24153 10.3218 8.37858 10.1942 8.542 10.11Z" fill="#F6F6F6"/>
</g>
<defs>
<clipPath id="clip0_4_56">
<rect width="32" height="32" fill="white"/>
</clipPath>
</defs>
</svg>
