<svg width="28" height="28" viewBox="0 0 28 28" fill="none" xmlns="http://www.w3.org/2000/svg">
<g clip-path="url(#clip0_4_82)">
<path d="M14 26.25C10.7511 26.25 7.63526 24.9594 5.33794 22.6621C3.04062 20.3647 1.75 17.2489 1.75 14C1.75 10.7511 3.04062 7.63526 5.33794 5.33794C7.63526 3.04062 10.7511 1.75 14 1.75C17.2489 1.75 20.3647 3.04062 22.6621 5.33794C24.9594 7.63526 26.25 10.7511 26.25 14C26.25 17.2489 24.9594 20.3647 22.6621 22.6621C20.3647 24.9594 17.2489 26.25 14 26.25ZM14 28C17.713 28 21.274 26.525 23.8995 23.8995C26.525 21.274 28 17.713 28 14C28 10.287 26.525 6.72601 23.8995 4.10051C21.274 1.475 17.713 0 14 0C10.287 0 6.72601 1.475 4.10051 4.10051C1.475 6.72601 0 10.287 0 14C0 17.713 1.475 21.274 4.10051 23.8995C6.72601 26.525 10.287 28 14 28Z" fill="#F6F6F6"/>
<path d="M8.13048 8.1305C8.21176 8.04901 8.30831 7.98436 8.41462 7.94025C8.52092 7.89614 8.63488 7.87344 8.74998 7.87344C8.86507 7.87344 8.97903 7.89614 9.08534 7.94025C9.19164 7.98436 9.2882 8.04901 9.36948 8.1305L14 12.7628L18.6305 8.1305C18.7118 8.04915 18.8084 7.98461 18.9147 7.94058C19.021 7.89656 19.1349 7.87389 19.25 7.87389C19.365 7.87389 19.479 7.89656 19.5852 7.94058C19.6915 7.98461 19.7881 8.04915 19.8695 8.1305C19.9508 8.21185 20.0154 8.30843 20.0594 8.41473C20.1034 8.52102 20.1261 8.63495 20.1261 8.75C20.1261 8.86505 20.1034 8.97898 20.0594 9.08527C20.0154 9.19157 19.9508 9.28815 19.8695 9.3695L15.2372 14L19.8695 18.6305C19.9508 18.7119 20.0154 18.8084 20.0594 18.9147C20.1034 19.021 20.1261 19.1349 20.1261 19.25C20.1261 19.3651 20.1034 19.479 20.0594 19.5853C20.0154 19.6916 19.9508 19.7881 19.8695 19.8695C19.7881 19.9509 19.6915 20.0154 19.5852 20.0594C19.479 20.1034 19.365 20.1261 19.25 20.1261C19.1349 20.1261 19.021 20.1034 18.9147 20.0594C18.8084 20.0154 18.7118 19.9509 18.6305 19.8695L14 15.2372L9.36948 19.8695C9.28812 19.9509 9.19154 20.0154 9.08525 20.0594C8.97895 20.1034 8.86503 20.1261 8.74998 20.1261C8.63493 20.1261 8.521 20.1034 8.41471 20.0594C8.30841 20.0154 8.21183 19.9509 8.13048 19.8695C8.04912 19.7881 7.98459 19.6916 7.94056 19.5853C7.89653 19.479 7.87387 19.3651 7.87387 19.25C7.87387 19.1349 7.89653 19.021 7.94056 18.9147C7.98459 18.8084 8.04912 18.7119 8.13048 18.6305L12.7627 14L8.13048 9.3695C8.04899 9.28822 7.98434 9.19166 7.94023 9.08536C7.89612 8.97905 7.87341 8.86509 7.87341 8.75C7.87341 8.63491 7.89612 8.52094 7.94023 8.41464C7.98434 8.30834 8.04899 8.21178 8.13048 8.1305Z" fill="#F6F6F6"/>
</g>
<defs>
<clipPath id="clip0_4_82">
<rect width="28" height="28" fill="white"/>
</clipPath>
</defs>
</svg>
